<svg xmlns="http://www.w3.org/2000/svg" xmlns:svg="http://www.w3.org/2000/svg" id="svg11" width="78" height="78" x="0" y="0" version="1.1" viewBox="0 0 78 78" xml:space="preserve"><metadata id="metadata25"/><style id="style2" type="text/css">.st0{fill:#fff}</style><filter id="dropshadow" height="1.3"><feGaussianBlur id="feGaussianBlur5" in="SourceAlpha" stdDeviation="1"/><feOffset id="feOffset7" dx="1.5" dy="1.5" result="offOut"/><feMerge id="feMerge13"><feMergeNode id="feMergeNode9"/><feMergeNode id="feMergeNode11" in="SourceGraphic"/></feMerge></filter><g id="g3960" transform="matrix(1.6008659,0,0,1.6008659,-8.763677,-14.387239)"><path id="path16" d="m 46.5,58.8 c -9.1,3.6 -17.9,4 -25.5,1 C 13.7,56.9 7.6,50.9 4.4,43.3 -1.4,29.9 1.8,11.4 22.1,1.9 19,3.9 15,8.6 12.4,14.8 c -1.6,3.9 -2.5,7.8 -2.7,11.8 0,0.5 0,0.9 0,1.4 0,4.1 0.8,8.1 2.5,11.9 4.2,9.7 11.9,14.5 17.7,16.8 6.5,2.7 13,3.1 16.6,2.1 z" class="st0" transform="matrix(0.5,0,0,0.5,14.918076,15.925704)" style="fill:#fff;filter:url(#dropshadow)"/><path id="path18" d="M 54.3,8.9 C 52.2,7.7 48.5,6.6 44,6.6 h -0.1 c -4.2,0 -10.5,0.9 -16,5.3 -1.3,1 -2.6,2.3 -3.7,3.6 -5.4,6.6 -5.8,14 -5.2,19 0.6,5.2 2.5,9.6 4.3,11.8 -6.9,-6.4 -9.7,-13.5 -9.7,-20 0,-5.7 2.1,-10.9 5.5,-15 1.7,-2.1 3.9,-4 6.2,-5.4 v 0 c 4.4,-2.6 15.6,-7.5 29,3 z" class="st0" transform="matrix(0.5,0,0,0.5,14.918076,15.925704)" style="fill:#fff;filter:url(#dropshadow)"/><path id="path20" d="M 58.9,24.6 C 58.4,23.4 57.4,22 56.2,20.6 54.9,19.3 52.8,17.3 49.8,16 46.5,14.5 43,14 39.5,14.7 c -3.3,0.6 -6.1,2.1 -8.6,4.4 -4,3.8 -5.9,8.9 -5.9,11.8 -1.2,-8 1.6,-13 4.3,-15.8 2.5,-2.6 5.8,-4.4 9.4,-5.1 1.1,-0.2 2.2,-0.3 3.2,-0.3 1.9,0 3.7,0.3 5.4,0.9 1.7,0.6 3.3,1.4 4.8,2.5 3.5,2.7 5.7,6.6 6.8,11.5 z" class="st0" transform="matrix(0.5,0,0,0.5,14.918076,15.925704)" style="fill:#fff;filter:url(#dropshadow)"/></g></svg>
